<?xml version="1.0" encoding="UTF-8" standalone="no"?>
<!DOCTYPE svg PUBLIC "-//W3C//DTD SVG 1.1//EN"
 "http://www.w3.org/Graphics/SVG/1.1/DTD/svg11.dtd">
<!-- Generated by graphviz version 2.43.0 (0)
 -->
<!-- Title: G Pages: 1 -->
<svg width="560pt" height="404pt"
 viewBox="0.00 0.00 560.00 404.00" xmlns="http://www.w3.org/2000/svg" xmlns:xlink="http://www.w3.org/1999/xlink">
<g id="graph0" class="graph" transform="scale(1 1) rotate(0) translate(4 400)">
<title>G</title>
<polygon fill="white" stroke="transparent" points="-4,4 -4,-400 556,-400 556,4 -4,4"/>
<!-- target -->
<g id="target" class="node">
<title>target</title>
<polygon fill="none" stroke="black" points="355.5,-324 294.5,-324 294.5,-320 290.5,-320 290.5,-316 294.5,-316 294.5,-296 290.5,-296 290.5,-292 294.5,-292 294.5,-288 355.5,-288 355.5,-324"/>
<polyline fill="none" stroke="black" points="294.5,-320 298.5,-320 298.5,-316 294.5,-316 "/>
<polyline fill="none" stroke="black" points="294.5,-296 298.5,-296 298.5,-292 294.5,-292 "/>
<text text-anchor="middle" x="325" y="-302.3" font-family="Times,serif" font-size="14.00">target</text>
</g>
<!-- target&#45;&gt;target -->
<g id="edge11" class="edge">
<title>target&#45;&gt;target</title>
<path fill="none" stroke="black" d="M355.78,-319.5C365.67,-319.36 373.5,-314.86 373.5,-306 373.5,-300.46 370.44,-296.63 365.73,-294.5"/>
<polygon fill="black" stroke="black" points="366.28,-291.04 355.78,-292.5 364.9,-297.9 366.28,-291.04"/>
</g>
<!-- data -->
<g id="data" class="node">
<title>data</title>
<polygon fill="none" stroke="black" points="392,-180 338,-180 338,-176 334,-176 334,-172 338,-172 338,-152 334,-152 334,-148 338,-148 338,-144 392,-144 392,-180"/>
<polyline fill="none" stroke="black" points="338,-176 342,-176 342,-172 338,-172 "/>
<polyline fill="none" stroke="black" points="338,-152 342,-152 342,-148 338,-148 "/>
<text text-anchor="middle" x="365" y="-158.3" font-family="Times,serif" font-size="14.00">data</text>
</g>
<!-- target&#45;&gt;data -->
<g id="edge1" class="edge">
<title>target&#45;&gt;data</title>
<path fill="none" stroke="black" d="M329.82,-287.87C336.67,-263.56 349.28,-218.82 357.39,-190.01"/>
<polygon fill="black" stroke="black" points="360.82,-190.76 360.16,-180.19 354.08,-188.87 360.82,-190.76"/>
</g>
<!-- system -->
<g id="system" class="node">
<title>system</title>
<polygon fill="none" stroke="black" points="306,-252 238,-252 238,-248 234,-248 234,-244 238,-244 238,-224 234,-224 234,-220 238,-220 238,-216 306,-216 306,-252"/>
<polyline fill="none" stroke="black" points="238,-248 242,-248 242,-244 238,-244 "/>
<polyline fill="none" stroke="black" points="238,-224 242,-224 242,-220 238,-220 "/>
<text text-anchor="middle" x="272" y="-230.3" font-family="Times,serif" font-size="14.00">system</text>
</g>
<!-- target&#45;&gt;system -->
<g id="edge12" class="edge">
<title>target&#45;&gt;system</title>
<path fill="none" stroke="black" d="M311.9,-287.7C305.61,-279.39 297.95,-269.28 291.04,-260.14"/>
<polygon fill="black" stroke="black" points="293.78,-257.96 284.95,-252.1 288.2,-262.19 293.78,-257.96"/>
</g>
<!-- data&#45;&gt;data -->
<g id="edge10" class="edge">
<title>data&#45;&gt;data</title>
<path fill="none" stroke="black" d="M392.24,-175.49C402.02,-175.78 410,-171.28 410,-162 410,-156.2 406.88,-152.27 402.16,-150.21"/>
<polygon fill="black" stroke="black" points="402.69,-146.75 392.24,-148.51 401.51,-153.65 402.69,-146.75"/>
</g>
<!-- eclipse -->
<g id="eclipse" class="node">
<title>eclipse</title>
<polygon fill="none" stroke="black" points="377,-108 311,-108 311,-104 307,-104 307,-100 311,-100 311,-80 307,-80 307,-76 311,-76 311,-72 377,-72 377,-108"/>
<polyline fill="none" stroke="black" points="311,-104 315,-104 315,-100 311,-100 "/>
<polyline fill="none" stroke="black" points="311,-80 315,-80 315,-76 311,-76 "/>
<text text-anchor="middle" x="344" y="-86.3" font-family="Times,serif" font-size="14.00">eclipse</text>
</g>
<!-- data&#45;&gt;eclipse -->
<g id="edge2" class="edge">
<title>data&#45;&gt;eclipse</title>
<path fill="none" stroke="black" d="M359.81,-143.7C357.47,-135.9 354.65,-126.51 352.05,-117.83"/>
<polygon fill="black" stroke="black" points="355.36,-116.68 349.13,-108.1 348.65,-118.69 355.36,-116.68"/>
</g>
<!-- phasecurve -->
<g id="phasecurve" class="node">
<title>phasecurve</title>
<polygon fill="none" stroke="black" points="237,-108 139,-108 139,-104 135,-104 135,-100 139,-100 139,-80 135,-80 135,-76 139,-76 139,-72 237,-72 237,-108"/>
<polyline fill="none" stroke="black" points="139,-104 143,-104 143,-100 139,-100 "/>
<polyline fill="none" stroke="black" points="139,-80 143,-80 143,-76 139,-76 "/>
<text text-anchor="middle" x="188" y="-86.3" font-family="Times,serif" font-size="14.00">phasecurve</text>
</g>
<!-- data&#45;&gt;phasecurve -->
<g id="edge4" class="edge">
<title>data&#45;&gt;phasecurve</title>
<path fill="none" stroke="black" d="M337.73,-150.22C311.98,-140.03 272.67,-124.48 240.79,-111.88"/>
<polygon fill="black" stroke="black" points="241.74,-108.49 231.15,-108.07 239.17,-115 241.74,-108.49"/>
</g>
<!-- transit -->
<g id="transit" class="node">
<title>transit</title>
<polygon fill="none" stroke="black" points="478.5,-108 413.5,-108 413.5,-104 409.5,-104 409.5,-100 413.5,-100 413.5,-80 409.5,-80 409.5,-76 413.5,-76 413.5,-72 478.5,-72 478.5,-108"/>
<polyline fill="none" stroke="black" points="413.5,-104 417.5,-104 417.5,-100 413.5,-100 "/>
<polyline fill="none" stroke="black" points="413.5,-80 417.5,-80 417.5,-76 413.5,-76 "/>
<text text-anchor="middle" x="446" y="-86.3" font-family="Times,serif" font-size="14.00">transit</text>
</g>
<!-- data&#45;&gt;transit -->
<g id="edge6" class="edge">
<title>data&#45;&gt;transit</title>
<path fill="none" stroke="black" d="M385.02,-143.7C395.13,-134.97 407.54,-124.24 418.52,-114.75"/>
<polygon fill="black" stroke="black" points="420.93,-117.29 426.21,-108.1 416.35,-111.99 420.93,-117.29"/>
</g>
<!-- eclipse&#45;&gt;eclipse -->
<g id="edge3" class="edge">
<title>eclipse&#45;&gt;eclipse</title>
<path fill="none" stroke="black" d="M377.35,-103.47C387.28,-103.07 395,-98.58 395,-90 395,-84.64 391.98,-80.87 387.3,-78.71"/>
<polygon fill="black" stroke="black" points="387.87,-75.25 377.35,-76.53 386.37,-82.09 387.87,-75.25"/>
</g>
<!-- phasecurve&#45;&gt;phasecurve -->
<g id="edge5" class="edge">
<title>phasecurve&#45;&gt;phasecurve</title>
<path fill="none" stroke="black" d="M237.08,-103.06C247.49,-101.74 255,-97.38 255,-90 255,-85.27 251.92,-81.78 246.96,-79.54"/>
<polygon fill="black" stroke="black" points="247.64,-76.1 237.08,-76.94 245.86,-82.87 247.64,-76.1"/>
</g>
<!-- transit&#45;&gt;transit -->
<g id="edge7" class="edge">
<title>transit&#45;&gt;transit</title>
<path fill="none" stroke="black" d="M478.54,-103.49C488.6,-103.21 496.5,-98.72 496.5,-90 496.5,-84.55 493.41,-80.75 488.64,-78.6"/>
<polygon fill="black" stroke="black" points="489.04,-75.11 478.54,-76.51 487.63,-81.97 489.04,-75.11"/>
</g>
<!-- cerberus -->
<g id="cerberus" class="node">
<title>cerberus</title>
<polygon fill="none" stroke="black" points="323,-36 243,-36 243,-32 239,-32 239,-28 243,-28 243,-8 239,-8 239,-4 243,-4 243,0 323,0 323,-36"/>
<polyline fill="none" stroke="black" points="243,-32 247,-32 247,-28 243,-28 "/>
<polyline fill="none" stroke="black" points="243,-8 247,-8 247,-4 243,-4 "/>
<text text-anchor="middle" x="283" y="-14.3" font-family="Times,serif" font-size="14.00">cerberus</text>
</g>
<!-- transit&#45;&gt;cerberus -->
<g id="edge8" class="edge">
<title>transit&#45;&gt;cerberus</title>
<path fill="none" stroke="black" d="M413.41,-75C390.16,-65.02 358.48,-51.41 332.17,-40.11"/>
<polygon fill="black" stroke="black" points="333.31,-36.8 322.74,-36.07 330.55,-43.23 333.31,-36.8"/>
</g>
<!-- cerberus&#45;&gt;cerberus -->
<g id="edge9" class="edge">
<title>cerberus&#45;&gt;cerberus</title>
<path fill="none" stroke="black" d="M323.12,-31.34C333.33,-30.46 341,-26.02 341,-18 341,-12.86 337.85,-9.19 332.91,-6.99"/>
<polygon fill="black" stroke="black" points="333.66,-3.57 323.12,-4.66 332.04,-10.38 333.66,-3.57"/>
</g>
<!-- system&#45;&gt;data -->
<g id="edge20" class="edge">
<title>system&#45;&gt;data</title>
<path fill="none" stroke="black" d="M294.99,-215.7C306.81,-206.8 321.39,-195.82 334.18,-186.2"/>
<polygon fill="black" stroke="black" points="336.39,-188.91 342.28,-180.1 332.18,-183.32 336.39,-188.91"/>
</g>
<!-- system&#45;&gt;eclipse -->
<g id="edge21" class="edge">
<title>system&#45;&gt;eclipse</title>
<path fill="none" stroke="black" d="M280.68,-215.87C293.12,-191.35 316.1,-146.03 330.69,-117.26"/>
<polygon fill="black" stroke="black" points="333.88,-118.69 335.28,-108.19 327.64,-115.53 333.88,-118.69"/>
</g>
<!-- system&#45;&gt;phasecurve -->
<g id="edge22" class="edge">
<title>system&#45;&gt;phasecurve</title>
<path fill="none" stroke="black" d="M261.87,-215.87C247.3,-191.24 220.32,-145.64 203.31,-116.88"/>
<polygon fill="black" stroke="black" points="206.27,-115.01 198.17,-108.19 200.25,-118.58 206.27,-115.01"/>
</g>
<!-- system&#45;&gt;transit -->
<g id="edge23" class="edge">
<title>system&#45;&gt;transit</title>
<path fill="none" stroke="black" d="M306.21,-229.46C339.47,-224.23 389.2,-211.37 419,-180 434.76,-163.4 441.35,-137.9 444.09,-118.44"/>
<polygon fill="black" stroke="black" points="447.58,-118.68 445.24,-108.35 440.63,-117.88 447.58,-118.68"/>
</g>
<!-- system&#45;&gt;cerberus -->
<g id="edge19" class="edge">
<title>system&#45;&gt;cerberus</title>
<path fill="none" stroke="black" d="M272.88,-215.85C274.78,-178.83 279.29,-91.18 281.59,-46.39"/>
<polygon fill="black" stroke="black" points="285.1,-46.4 282.11,-36.23 278.11,-46.04 285.1,-46.4"/>
</g>
<!-- system&#45;&gt;system -->
<g id="edge13" class="edge">
<title>system&#45;&gt;system</title>
<path fill="none" stroke="black" d="M306.01,-247.47C316.13,-247.07 324,-242.58 324,-234 324,-228.64 320.92,-224.87 316.15,-222.71"/>
<polygon fill="black" stroke="black" points="316.52,-219.21 306.01,-220.53 315.05,-226.05 316.52,-219.21"/>
</g>
<!-- ancillary -->
<g id="ancillary" class="node">
<title>ancillary</title>
<polygon fill="none" stroke="black" points="78,-180 0,-180 0,-176 -4,-176 -4,-172 0,-172 0,-152 -4,-152 -4,-148 0,-148 0,-144 78,-144 78,-180"/>
<polyline fill="none" stroke="black" points="0,-176 4,-176 4,-172 0,-172 "/>
<polyline fill="none" stroke="black" points="0,-152 4,-152 4,-148 0,-148 "/>
<text text-anchor="middle" x="39" y="-158.3" font-family="Times,serif" font-size="14.00">ancillary</text>
</g>
<!-- system&#45;&gt;ancillary -->
<g id="edge14" class="edge">
<title>system&#45;&gt;ancillary</title>
<path fill="none" stroke="black" d="M237.62,-222.67C198.08,-210.79 132.85,-191.2 88,-177.72"/>
<polygon fill="black" stroke="black" points="88.78,-174.3 78.2,-174.78 86.77,-181 88.78,-174.3"/>
</g>
<!-- ariel -->
<g id="ariel" class="node">
<title>ariel</title>
<polygon fill="none" stroke="black" points="168,-180 114,-180 114,-176 110,-176 110,-172 114,-172 114,-152 110,-152 110,-148 114,-148 114,-144 168,-144 168,-180"/>
<polyline fill="none" stroke="black" points="114,-176 118,-176 118,-172 114,-172 "/>
<polyline fill="none" stroke="black" points="114,-152 118,-152 118,-148 114,-148 "/>
<text text-anchor="middle" x="141" y="-158.3" font-family="Times,serif" font-size="14.00">ariel</text>
</g>
<!-- system&#45;&gt;ariel -->
<g id="edge17" class="edge">
<title>system&#45;&gt;ariel</title>
<path fill="none" stroke="black" d="M239.95,-215.88C220.99,-205.74 196.91,-192.88 177.26,-182.37"/>
<polygon fill="black" stroke="black" points="178.76,-179.21 168.29,-177.58 175.46,-185.38 178.76,-179.21"/>
</g>
<!-- ancillary&#45;&gt;cerberus -->
<g id="edge16" class="edge">
<title>ancillary&#45;&gt;cerberus</title>
<path fill="none" stroke="black" d="M50.04,-143.76C63.69,-123.75 88.75,-91.07 118,-72 152.98,-49.19 198.53,-35.53 232.91,-27.81"/>
<polygon fill="black" stroke="black" points="233.7,-31.22 242.74,-25.7 232.23,-24.38 233.7,-31.22"/>
</g>
<!-- ancillary&#45;&gt;ancillary -->
<g id="edge15" class="edge">
<title>ancillary&#45;&gt;ancillary</title>
<path fill="none" stroke="black" d="M78.16,-175.36C88.33,-174.54 96,-170.09 96,-162 96,-156.82 92.85,-153.13 87.92,-150.93"/>
<polygon fill="black" stroke="black" points="88.7,-147.52 78.16,-148.64 87.1,-154.33 88.7,-147.52"/>
</g>
<!-- ariel&#45;&gt;cerberus -->
<g id="edge18" class="edge">
<title>ariel&#45;&gt;cerberus</title>
<path fill="none" stroke="black" d="M132.47,-143.89C124.2,-124.6 114.92,-93.18 130,-72 153.15,-39.48 197.68,-26.73 232.76,-21.83"/>
<polygon fill="black" stroke="black" points="233.34,-25.28 242.84,-20.59 232.49,-18.33 233.34,-25.28"/>
</g>
<!-- runtime -->
<g id="runtime" class="node">
<title>runtime</title>
<polygon fill="none" stroke="black" points="362,-396 288,-396 288,-392 284,-392 284,-388 288,-388 288,-368 284,-368 284,-364 288,-364 288,-360 362,-360 362,-396"/>
<polyline fill="none" stroke="black" points="288,-392 292,-392 292,-388 288,-388 "/>
<polyline fill="none" stroke="black" points="288,-368 292,-368 292,-364 288,-364 "/>
<text text-anchor="middle" x="325" y="-374.3" font-family="Times,serif" font-size="14.00">runtime</text>
</g>
<!-- runtime&#45;&gt;target -->
<g id="edge33" class="edge">
<title>runtime&#45;&gt;target</title>
<path fill="none" stroke="black" d="M325,-359.7C325,-351.98 325,-342.71 325,-334.11"/>
<polygon fill="black" stroke="black" points="328.5,-334.1 325,-324.1 321.5,-334.1 328.5,-334.1"/>
</g>
<!-- runtime&#45;&gt;data -->
<g id="edge25" class="edge">
<title>runtime&#45;&gt;data</title>
<path fill="none" stroke="black" d="M351.58,-359.91C363.24,-350.81 375.69,-338.49 382,-324 401.23,-279.87 387.12,-222.72 375.67,-189.73"/>
<polygon fill="black" stroke="black" points="378.95,-188.51 372.24,-180.3 372.37,-190.9 378.95,-188.51"/>
</g>
<!-- runtime&#45;&gt;eclipse -->
<g id="edge26" class="edge">
<title>runtime&#45;&gt;eclipse</title>
<path fill="none" stroke="black" d="M361.64,-359.96C376.26,-351.28 391.77,-339.29 401,-324 434.33,-268.78 414.99,-244.37 419,-180 419.99,-164.03 426.36,-158.21 419,-144 411.79,-130.08 399.06,-119.04 386.11,-110.71"/>
<polygon fill="black" stroke="black" points="387.55,-107.5 377.17,-105.38 383.97,-113.51 387.55,-107.5"/>
</g>
<!-- runtime&#45;&gt;phasecurve -->
<g id="edge27" class="edge">
<title>runtime&#45;&gt;phasecurve</title>
<path fill="none" stroke="black" d="M305.67,-359.88C295.07,-349.98 282.08,-336.93 272,-324 249.09,-294.6 243.3,-286.42 229,-252 210.3,-207.01 198.43,-151.3 192.52,-118.6"/>
<polygon fill="black" stroke="black" points="195.91,-117.69 190.74,-108.44 189.01,-118.9 195.91,-117.69"/>
</g>
<!-- runtime&#45;&gt;transit -->
<g id="edge28" class="edge">
<title>runtime&#45;&gt;transit</title>
<path fill="none" stroke="black" d="M362.33,-366.06C383.48,-357.91 408.53,-344.56 423,-324 467.06,-261.4 458.74,-164.81 451.26,-118.11"/>
<polygon fill="black" stroke="black" points="454.7,-117.41 449.56,-108.15 447.8,-118.6 454.7,-117.41"/>
</g>
<!-- runtime&#45;&gt;cerberus -->
<g id="edge24" class="edge">
<title>runtime&#45;&gt;cerberus</title>
<path fill="none" stroke="black" d="M362.23,-371.21C426.63,-358.85 552,-323.44 552,-235 552,-235 552,-235 552,-161 552,-116.27 540.35,-99.41 505,-72 455.41,-33.54 382.21,-22.38 333.59,-19.47"/>
<polygon fill="black" stroke="black" points="333.47,-15.95 323.31,-18.95 333.12,-22.95 333.47,-15.95"/>
</g>
<!-- runtime&#45;&gt;system -->
<g id="edge32" class="edge">
<title>runtime&#45;&gt;system</title>
<path fill="none" stroke="black" d="M308.46,-359.78C300.07,-350.04 290.51,-337.19 285,-324 276.79,-304.34 273.63,-280.35 272.48,-262.24"/>
<polygon fill="black" stroke="black" points="275.97,-261.89 272,-252.07 268.98,-262.22 275.97,-261.89"/>
</g>
<!-- runtime&#45;&gt;ancillary -->
<g id="edge30" class="edge">
<title>runtime&#45;&gt;ancillary</title>
<path fill="none" stroke="black" d="M287.94,-372.14C251.76,-365.92 196.52,-352.33 157,-324 107.18,-288.29 69.88,-225.07 51.57,-189.4"/>
<polygon fill="black" stroke="black" points="54.53,-187.49 46.92,-180.12 48.27,-190.63 54.53,-187.49"/>
</g>
<!-- runtime&#45;&gt;ariel -->
<g id="edge31" class="edge">
<title>runtime&#45;&gt;ariel</title>
<path fill="none" stroke="black" d="M287.97,-372.9C255.48,-367.33 209.27,-354.31 182,-324 148.43,-286.69 141.56,-225.72 140.59,-190.49"/>
<polygon fill="black" stroke="black" points="144.09,-190.39 140.46,-180.44 137.09,-190.48 144.09,-190.39"/>
</g>
<!-- runtime&#45;&gt;runtime -->
<g id="edge29" class="edge">
<title>runtime&#45;&gt;runtime</title>
<path fill="none" stroke="black" d="M362.02,-391.42C372.21,-390.77 380,-386.3 380,-378 380,-372.68 376.8,-368.94 371.82,-366.76"/>
<polygon fill="black" stroke="black" points="372.54,-363.34 362.02,-364.58 371.02,-370.17 372.54,-363.34"/>
</g>
</g>
</svg>
